<?xml version="1.0" encoding="UTF-8" standalone="no"?>
<svg
   viewBox="0 0 24 24"
   version="1.1"
   id="svg4"
   sodipodi:docname="mug-hot-solid.svg"
   inkscape:version="1.2.2 (732a01da63, 2022-12-09)"
   xmlns:inkscape="http://www.inkscape.org/namespaces/inkscape"
   xmlns:sodipodi="http://sodipodi.sourceforge.net/DTD/sodipodi-0.dtd"
   xmlns="http://www.w3.org/2000/svg"
   xmlns:svg="http://www.w3.org/2000/svg">
  <defs
     id="defs8" />
  <sodipodi:namedview
     id="namedview6"
     pagecolor="#ffffff"
     bordercolor="#000000"
     borderopacity="0.25"
     inkscape:showpageshadow="2"
     inkscape:pageopacity="0.0"
     inkscape:pagecheckerboard="0"
     inkscape:deskcolor="#d1d1d1"
     showgrid="false"
     inkscape:zoom="1.2675781"
     inkscape:cx="255.60555"
     inkscape:cy="130.16949"
     inkscape:window-width="1600"
     inkscape:window-height="829"
     inkscape:window-x="-8"
     inkscape:window-y="-8"
     inkscape:window-maximized="1"
     inkscape:current-layer="svg4" />
  <!--! Font Awesome Pro 6.4.0 by @fontawesome - https://fontawesome.com License - https://fontawesome.com/license (Commercial License) Copyright 2023 Fonticons, Inc. -->
  <path
     d="M 4.125,0 C 3.5015625,0 3,0.5015625 3,1.125 3,2.9484375 4.096875,3.909375 4.8328125,4.5515625 l 0.051563,0.046875 C 5.6484375,5.2640625 6,5.6203125 6,6.375 6,6.9984375 6.5015625,7.5 7.125,7.5 7.7484375,7.5 8.25,6.9984375 8.25,6.375 8.25,4.5515625 7.153125,3.590625 6.4171875,2.9484375 L 6.3656245,2.9015625 C 5.6015625,2.2359375 5.25,1.8796875 5.25,1.125 5.25,0.5015625 4.7484375,0 4.125,0 Z M 1.5,9 C 0.6703125,9 0,9.6703125 0,10.5 v 9 C 0,21.984375 2.015625,24 4.5,24 h 9 c 2.484375,0 4.5,-2.015625 4.5,-4.5 h 0.75 C 21.651562,19.5 24,17.151562 24,14.25 24,11.348437 21.651562,9 18.75,9 H 16.5 Z M 18,12 h 0.75 c 1.242187,0 2.25,1.007813 2.25,2.25 0,1.242188 -1.007813,2.25 -2.25,2.25 H 18 Z M 10.5,1.125 C 10.5,0.5015625 9.9984375,0 9.375,0 8.7515625,0 8.25,0.5015625 8.25,1.125 c 0,1.8234375 1.096875,2.784375 1.832812,3.4265625 l 0.05156,0.046875 C 10.898438,5.2640625 11.25,5.6203125 11.25,6.375 11.25,6.9984375 11.751562,7.5 12.375,7.5 12.998438,7.5 13.5,6.9984375 13.5,6.375 13.5,4.5515625 12.403125,3.590625 11.667188,2.9484375 l -0.05156,-0.046875 C 10.851563,2.2359375 10.5,1.8796875 10.5,1.125 Z"
     id="path2"
     style="stroke-width:0.0468749" />
</svg>
